<?xml version="1.0" encoding="UTF-8" standalone="no"?>
<!DOCTYPE svg PUBLIC "-//W3C//DTD SVG 1.1//EN" "http://www.w3.org/Graphics/SVG/1.1/DTD/svg11.dtd">
<!-- Generated by Microsoft Visio, SVG Export Vehicle Climbing a hills.svg Page-1 -->
<svg xmlns="http://www.w3.org/2000/svg" xmlns:xlink="http://www.w3.org/1999/xlink" xmlns:ev="http://www.w3.org/2001/xml-events"
		xmlns:v="http://schemas.microsoft.com/visio/2003/SVGExtensions/" width="6.79833in" height="1.12024in"
		viewBox="0 0 489.48 80.6569" xml:space="preserve" color-interpolation-filters="sRGB" class="st13">
	<v:documentProperties v:langID="1033" v:viewMarkup="false"/>

	<style type="text/css">
	<![CDATA[
		.st1 {fill:none;stroke:none;stroke-linecap:round;stroke-linejoin:round;stroke-width:0.75}
		.st2 {fill:#000000;font-family:Times New Roman;font-size:0.666664em}
		.st3 {stroke:#000000;stroke-linecap:round;stroke-linejoin:round;stroke-width:1}
		.st4 {stroke:#000000;stroke-linecap:round;stroke-linejoin:round;stroke-width:0.24}
		.st5 {fill:none;stroke:#000000;stroke-linecap:round;stroke-linejoin:round;stroke-width:0.24}
		.st6 {fill:#ffffff;stroke:#000000;stroke-linecap:round;stroke-linejoin:round;stroke-width:0.7}
		.st7 {fill:#ff0000;stroke:#000000;stroke-linecap:round;stroke-linejoin:round;stroke-width:0.2}
		.st8 {fill:#ffff00;stroke:#000000;stroke-linecap:round;stroke-linejoin:round;stroke-width:0.2}
		.st9 {fill:#9dbb61;stroke:#000000;stroke-linecap:round;stroke-linejoin:round;stroke-width:0.2}
		.st10 {stroke:#000000;stroke-linecap:round;stroke-linejoin:round;stroke-width:0.8}
		.st11 {stroke:#000000;stroke-dasharray:7,5;stroke-linecap:round;stroke-linejoin:round;stroke-width:1}
		.st12 {font-size:1em}
		.st13 {fill:none;fill-rule:evenodd;font-size:12px;overflow:visible;stroke-linecap:square;stroke-miterlimit:3}
	]]>
	</style>

	<g v:mID="0" v:index="1" v:groupContext="foregroundPage">
		<title>Page-1</title>
		<v:pageProperties v:drawingScale="0.0393701" v:pageScale="0.0393701" v:drawingUnits="24" v:shadowOffsetX="4.25197"
				v:shadowOffsetY="-4.25197"/>
		<g id="group330-1" transform="translate(8.8756,-1.5883)" v:mID="330" v:groupContext="group">
			<title>Sheet.330</title>
			<g id="shape307-2" v:mID="307" v:groupContext="shape" transform="translate(432.851,-9.60621)">
				<title>Sheet.307</title>
				<desc>Standstill</desc>
				<v:textBlock v:margins="rect(2,2,2,2)" v:tabSpace="42.5197"/>
				<v:textRect cx="19.3154" cy="76.405" width="38.64" height="8.50394"/>
				<rect x="0" y="72.153" width="38.6307" height="8.50394" class="st1"/>
				<text x="4.2" y="78.8" class="st2" v:langID="1033"><v:paragraph v:horizAlign="1"/><v:tabList/>Standstill</text>			</g>
			<g id="shape201-5" v:mID="201" v:groupContext="shape" transform="translate(366.56,-34.0176)">
				<title>Sheet.201</title>
				<path d="M0 80.66 L61.8 80.66" class="st3"/>
			</g>
			<g id="shape203-8" v:mID="203" v:groupContext="shape" transform="translate(42.8605,-33.9647)">
				<title>Sheet.203</title>
				<path d="M0 80.66 L0.35 80.66" class="st3"/>
			</g>
			<g id="shape205-11" v:mID="205" v:groupContext="shape" transform="translate(3.74894,-33.9647)">
				<title>Sheet.205</title>
				<path d="M0 80.66 L61.8 80.66" class="st3"/>
			</g>
			<g id="shape211-14" v:mID="211" v:groupContext="shape" transform="translate(44.223,-25.0905) rotate(29.7447)">
				<title>Sheet.211</title>
				<path d="M-0 79.13 A1.98427 1.98425 -119.74 0 0 3.86 79.13" class="st4"/>
			</g>
			<g id="group212-17" transform="translate(3.74894,-34.4982)" v:mID="212" v:groupContext="group">
				<title>Sheet.212</title>
				<g id="shape213-18" v:mID="213" v:groupContext="shape" transform="translate(16.7003,-7.10543E-14)">
					<title>Sheet.213</title>
					<ellipse cx="1.98425" cy="78.6727" rx="1.98425" ry="1.98425" class="st5"/>
				</g>
				<g id="shape214-20" v:mID="214" v:groupContext="shape" transform="translate(6.38916,157.3) rotate(178.996)">
					<title>Sheet.214</title>
					<path d="M-0 79.27 A1.98427 1.98425 -89 0 0 3.79 79.27" class="st4"/>
				</g>
				<g id="shape215-23" v:mID="215" v:groupContext="shape" transform="translate(-73.9613,62.8872) rotate(-77.6873)">
					<title>Sheet.215</title>
					<path d="M0 80.38 A1.98427 1.98425 -12.31 0 0 2.03 80.38" class="st4"/>
				</g>
				<g id="shape216-26" v:mID="216" v:groupContext="shape" transform="translate(5.38426,-11.3386)">
					<title>Sheet.216</title>
					<path d="M0 80.66 L0 80.66" class="st4"/>
				</g>
				<g id="shape217-29" v:mID="217" v:groupContext="shape" transform="translate(5.10236,-11.3386)">
					<title>Sheet.217</title>
					<path d="M0 80.66 L0.28 80.66" class="st4"/>
				</g>
				<g id="shape218-32" v:mID="218" v:groupContext="shape" transform="translate(5.90097,-2.61173)">
					<title>Sheet.218</title>
					<path d="M0 80.66 L10.89 80.66" class="st4"/>
				</g>
				<g id="shape219-35" v:mID="219" v:groupContext="shape" transform="translate(5.00054,-2.61173)">
					<title>Sheet.219</title>
					<path d="M0 80.66 L4.61 80.66" class="st4"/>
				</g>
				<g id="shape220-38" v:mID="220" v:groupContext="shape" transform="translate(5.38739,149.975) rotate(180)">
					<title>Sheet.220</title>
					<path d="M0 80.66 L0 80.66" class="st4"/>
				</g>
				<g id="shape221-41" v:mID="221" v:groupContext="shape" transform="translate(-36.4579,21.0374) rotate(-45)">
					<title>Sheet.221</title>
					<path d="M0 80.66 L1.68 80.66" class="st4"/>
				</g>
				<g id="shape222-44" v:mID="222" v:groupContext="shape" transform="translate(-22.0314,142.951) rotate(-146.406)">
					<title>Sheet.222</title>
					<path d="M0 79.22 A7.6432 2.51038 0 0 0 13.81 79.22" class="st4"/>
				</g>
				<g id="shape223-47" v:mID="223" v:groupContext="shape" transform="translate(48.522,0.847704) rotate(28.4773)">
					<title>Sheet.223</title>
					<path d="M0 78.01 A4.89111 4.71797 0 0 0 8.79 78.01" class="st4"/>
				</g>
				<g id="group224-50" transform="translate(-48.8375,19.6202) rotate(-45)" v:mID="224" v:groupContext="group">
					<title>Sheet.224</title>
					<g id="shape225-51" v:mID="225" v:groupContext="shape" transform="translate(59.7329,131.616) rotate(135.324)">
						<title>Sheet.225</title>
						<path d="M-0 80.57 A6.26076 1.41732 -180 0 0 4.34 80.57" class="st4"/>
					</g>
					<g id="shape226-54" v:mID="226" v:groupContext="shape" transform="translate(56.6553,20.101) rotate(44.6892)">
						<title>Sheet.226</title>
						<path d="M-0 80.56 A6.38853 1.38898 -180 0 0 4.67 80.56" class="st4"/>
					</g>
					<g id="shape227-57" v:mID="227" v:groupContext="shape" transform="translate(-50.2524,134.88) rotate(-135.311)">
						<title>Sheet.227</title>
						<path d="M-0 80.56 A6.38853 1.38898 -180 0 0 4.67 80.56" class="st4"/>
					</g>
					<g id="shape228-60" v:mID="228" v:groupContext="shape" transform="translate(-53.3299,23.365) rotate(-44.6763)">
						<title>Sheet.228</title>
						<path d="M0 80.57 A6.26076 1.41732 -180 0 0 4.34 80.57" class="st4"/>
					</g>
				</g>
				<g id="group229-63" transform="translate(18.8263,-4.32283)" v:mID="229" v:groupContext="group">
					<title>Sheet.229</title>
					<g id="shape230-64" v:mID="230" v:groupContext="shape" transform="translate(-59.0993,133.371) rotate(-131.186)">
						<title>Sheet.230</title>
						<path d="M-0 80.11 a0.92126 0.92126 -119.2 0 0 1.68149 -1.42109E-14" class="st4"/>
					</g>
					<g id="shape231-67" v:mID="231" v:groupContext="shape" transform="translate(60.3748,26.5966) rotate(48.8141)">
						<title>Sheet.231</title>
						<path d="M-0 80.11 a0.92126 0.92126 -60.8 0 0 1.68149 0" class="st4"/>
					</g>
				</g>
				<g id="shape232-70" v:mID="232" v:groupContext="shape" transform="translate(75.4833,102.557) rotate(115.369)">
					<title>Sheet.232</title>
					<path d="M0 77.58 A5.38583 5.38583 -18.16 0 0 9.73 77.58" class="st4"/>
				</g>
				<g id="shape233-73" v:mID="233" v:groupContext="shape" transform="translate(5.38426,-11.3386)">
					<title>Sheet.233</title>
					<path d="M0 80.66 L4.8 80.66" class="st4"/>
				</g>
			</g>
			<g id="shape253-76" v:mID="253" v:groupContext="shape" transform="translate(431.048,-59.443)">
				<title>Sheet.253</title>
				<rect x="0" y="61.3813" width="7.65354" height="19.2756" class="st6"/>
			</g>
			<g id="shape254-78" v:mID="254" v:groupContext="shape" transform="translate(432.721,-73.3328)">
				<title>Sheet.254</title>
				<ellipse cx="2.15433" cy="78.531" rx="2.15433" ry="2.12598" class="st7"/>
			</g>
			<g id="shape255-80" v:mID="255" v:groupContext="shape" transform="translate(432.721,-66.9549)">
				<title>Sheet.255</title>
				<ellipse cx="2.15433" cy="78.531" rx="2.15433" ry="2.12598" class="st8"/>
			</g>
			<g id="shape256-82" v:mID="256" v:groupContext="shape" transform="translate(432.721,-60.5769)">
				<title>Sheet.256</title>
				<ellipse cx="2.15433" cy="78.531" rx="2.15433" ry="2.12598" class="st9"/>
			</g>
			<g id="shape260-84" v:mID="260" v:groupContext="shape" transform="translate(201.613,0)">
				<title>Sheet.260</title>
				<path d="M0 80.66 L28.35 80.66" class="st3"/>
			</g>
			<g id="shape200-87" v:mID="200" v:groupContext="shape" transform="translate(120.147,-19.334)">
				<title>Sheet.200</title>
				<path d="M0 80.66 L28.35 80.66" class="st3"/>
			</g>
			<g id="shape258-90" v:mID="258" v:groupContext="shape" transform="translate(86.4198,-31.2164) rotate(15)">
				<title>Sheet.258</title>
				<path d="M0 80.66 L56.53 80.66" class="st3"/>
			</g>
			<g id="shape259-93" v:mID="259" v:groupContext="shape" transform="translate(176.08,-14.4698) rotate(20)">
				<title>Sheet.259</title>
				<path d="M0 80.66 L56.53 80.66" class="st3"/>
			</g>
			<g id="shape263-96" v:mID="263" v:groupContext="shape" transform="translate(311.677,-19.334) scale(-1,1)">
				<title>Sheet.263</title>
				<path d="M0 80.66 L28.35 80.66" class="st3"/>
			</g>
			<g id="shape264-99" v:mID="264" v:groupContext="shape" transform="translate(345.404,-31.2164) rotate(-15) scale(-1,1)">
				<title>Sheet.264</title>
				<path d="M0 80.66 L56.53 80.66" class="st3"/>
			</g>
			<g id="shape265-102" v:mID="265" v:groupContext="shape" transform="translate(255.744,-14.4698) rotate(-20) scale(-1,1)">
				<title>Sheet.265</title>
				<path d="M0 80.66 L56.53 80.66" class="st3"/>
			</g>
			<g id="group271-105" transform="translate(366.843,-23.7265)" v:mID="271" v:groupContext="group">
				<title>Sheet.271</title>
				<g id="group266-106" transform="translate(0,-4.3937)" v:mID="266" v:groupContext="group">
					<title>Sheet.266</title>
					<g id="shape267-107" v:mID="267" v:groupContext="shape" transform="translate(1.19904E-14,-1.55906)">
						<title>Sheet.267</title>
						<path d="M0 80.66 L61.8 80.66" class="st10"/>
					</g>
					<g id="shape268-110" v:mID="268" v:groupContext="shape" transform="translate(-18.8617,80.6569) rotate(-90)">
						<title>Sheet.268</title>
						<path d="M0 80.66 L3.12 80.66" class="st10"/>
					</g>
					<g id="shape269-113" v:mID="269" v:groupContext="shape" transform="translate(-80.6569,80.6569) rotate(-90)">
						<title>Sheet.269</title>
						<path d="M0 80.66 L3.12 80.66" class="st10"/>
					</g>
				</g>
			</g>
			<g id="group272-116" transform="translate(3.74894,-23.7265)" v:mID="272" v:groupContext="group">
				<title>Sheet.272</title>
				<g id="group238-117" transform="translate(0,-4.3937)" v:mID="238" v:groupContext="group">
					<title>Sheet.238</title>
					<g id="shape239-118" v:mID="239" v:groupContext="shape" transform="translate(1.19904E-14,-1.55906)">
						<title>Sheet.239</title>
						<path d="M0 80.66 L61.8 80.66" class="st10"/>
					</g>
					<g id="shape240-121" v:mID="240" v:groupContext="shape" transform="translate(-18.8617,80.6569) rotate(-90)">
						<title>Sheet.240</title>
						<path d="M0 80.66 L3.12 80.66" class="st10"/>
					</g>
					<g id="shape241-124" v:mID="241" v:groupContext="shape" transform="translate(-80.6569,80.6569) rotate(-90)">
						<title>Sheet.241</title>
						<path d="M0 80.66 L3.12 80.66" class="st10"/>
					</g>
				</g>
				<g id="shape242-127" v:mID="242" v:groupContext="shape" transform="translate(0.82678,0)">
					<title>Sheet.242</title>
					<desc>Acceleration</desc>
					<v:textBlock v:margins="rect(2,2,2,2)" v:tabSpace="42.5197"/>
					<v:textRect cx="30.8976" cy="78.9562" width="61.8" height="3.40157"/>
					<rect x="0" y="77.2554" width="61.7953" height="3.40157" class="st1"/>
					<text x="10.47" y="81.36" class="st2" v:langID="1033"><v:paragraph v:horizAlign="1"/><v:tabList/>Acceleration</text>				</g>
			</g>
			<g id="shape273-130" v:mID="273" v:groupContext="shape" transform="translate(77.5644,-19.334)">
				<title>Sheet.273</title>
				<path d="M0 80.66 L42.52 80.66" class="st11"/>
			</g>
			<g id="shape274-133" v:mID="274" v:groupContext="shape" transform="translate(311.568,-19.334)">
				<title>Sheet.274</title>
				<path d="M0 80.66 L42.52 80.66" class="st11"/>
			</g>
			<g id="shape275-136" v:mID="275" v:groupContext="shape" transform="translate(159.093,0)">
				<title>Sheet.275</title>
				<path d="M0 80.66 L42.52 80.66" class="st11"/>
			</g>
			<g id="shape276-139" v:mID="276" v:groupContext="shape" transform="translate(229.363,0)">
				<title>Sheet.276</title>
				<path d="M0 80.66 L42.52 80.66" class="st11"/>
			</g>
			<g id="shape277-142" v:mID="277" v:groupContext="shape" transform="translate(81.9616,-20.9448)">
				<title>Sheet.277</title>
				<desc>15°</desc>
				<v:textBlock v:margins="rect(2,2,2,2)" v:tabSpace="42.5197"/>
				<v:textRect cx="7.65354" cy="78.9562" width="15.31" height="3.40157"/>
				<rect x="0" y="77.2554" width="15.3071" height="3.40157" class="st1"/>
				<text x="2.05" y="81.36" class="st2" v:langID="1033"><v:paragraph v:horizAlign="1"/><v:tabList/>15°</text>			</g>
			<g id="shape278-145" v:mID="278" v:groupContext="shape" transform="translate(180.806,59.2536) rotate(92.2967)">
				<title>Sheet.278</title>
				<path d="M-0 80.48 A7.19891 3.54331 -0 0 0 4.45 80.48" class="st11"/>
			</g>
			<g id="shape279-148" v:mID="279" v:groupContext="shape" transform="translate(333.55,-20.9113)">
				<title>Sheet.279</title>
				<desc>15°</desc>
				<v:textBlock v:margins="rect(2,2,2,2)" v:tabSpace="42.5197"/>
				<v:textRect cx="7.78181" cy="78.9562" width="15.57" height="3.40157"/>
				<rect x="0" y="77.2554" width="15.5636" height="3.40157" class="st1"/>
				<text x="2.18" y="81.36" class="st2" v:langID="1033"><v:paragraph v:horizAlign="1"/><v:tabList/>15°</text>			</g>
			<g id="shape280-151" v:mID="280" v:groupContext="shape" transform="translate(250.155,56.2066) rotate(-86.4944)">
				<title>Sheet.280</title>
				<path d="M0 80.51 A9.29513 4.53558 -0.04 0 0 4.68 80.51" class="st3"/>
			</g>
			<g id="shape281-154" v:mID="281" v:groupContext="shape" transform="translate(169.836,-2.23613)">
				<title>Sheet.281</title>
				<desc>20°</desc>
				<v:textBlock v:margins="rect(2,2,2,2)" v:tabSpace="42.5197"/>
				<v:textRect cx="7.65354" cy="78.9562" width="15.31" height="3.40157"/>
				<rect x="0" y="77.2554" width="15.3071" height="3.40157" class="st1"/>
				<text x="2.05" y="81.36" class="st2" v:langID="1033"><v:paragraph v:horizAlign="1"/><v:tabList/>20°</text>			</g>
			<g id="shape282-157" v:mID="282" v:groupContext="shape" transform="translate(266.554,79.1407) rotate(92.2967)">
				<title>Sheet.282</title>
				<path d="M-0 80.48 A7.19891 3.54331 -0 0 0 4.45 80.48" class="st11"/>
			</g>
			<g id="shape288-160" v:mID="288" v:groupContext="shape" transform="translate(248.61,-1.51073)">
				<title>Sheet.288</title>
				<desc>20°</desc>
				<v:textBlock v:margins="rect(2,2,2,2)" v:tabSpace="42.5197"/>
				<v:textRect cx="7.78181" cy="78.9562" width="15.57" height="3.40157"/>
				<rect x="0" y="77.2554" width="15.5636" height="3.40157" class="st1"/>
				<text x="2.18" y="81.36" class="st2" v:langID="1033"><v:paragraph v:horizAlign="1"/><v:tabList/>20°</text>			</g>
			<g id="shape289-163" v:mID="289" v:groupContext="shape" transform="translate(165.216,75.6072) rotate(-86.4944)">
				<title>Sheet.289</title>
				<path d="M0 80.51 A9.29513 4.53558 -0.04 0 0 4.68 80.51" class="st3"/>
			</g>
			<g id="group294-166" transform="translate(-17.3245,43.5547) rotate(-90)" v:mID="294" v:groupContext="group">
				<title>Sheet.294</title>
				<g id="shape291-167" v:mID="291" v:groupContext="shape" transform="translate(-57.0331,23.6239) rotate(-45)">
					<title>Sheet.291</title>
					<path d="M0 80.66 L25.77 80.66" class="st3"/>
				</g>
				<g id="shape292-170" v:mID="292" v:groupContext="shape" transform="translate(-80.6569,80.6569) rotate(-90)">
					<title>Sheet.292</title>
					<path d="M0 80.66 L5.67 80.66" class="st3"/>
				</g>
				<g id="shape293-173" v:mID="293" v:groupContext="shape">
					<title>Sheet.293</title>
					<path d="M0 80.66 L5.67 80.66" class="st3"/>
				</g>
			</g>
			<g id="shape295-176" v:mID="295" v:groupContext="shape" transform="translate(14.9844,-49.0972)">
				<title>Sheet.295</title>
				<desc>91 mph</desc>
				<v:textBlock v:margins="rect(2,2,2,2)" v:tabSpace="42.5197"/>
				<v:textRect cx="15.0634" cy="76.405" width="30.13" height="8.50394"/>
				<rect x="0" y="72.153" width="30.1268" height="8.50394" class="st1"/>
				<text x="2.95" y="78.8" class="st2" v:langID="1033"><v:paragraph v:horizAlign="1"/><v:tabList/>91 mph</text>			</g>
			<g id="group303-179" transform="translate(488.83,109.402) rotate(135)" v:mID="303" v:groupContext="group">
				<title>Sheet.303</title>
				<g id="shape304-180" v:mID="304" v:groupContext="shape" transform="translate(-57.0331,23.6239) rotate(-45)">
					<title>Sheet.304</title>
					<path d="M0 80.66 L25.77 80.66" class="st3"/>
				</g>
				<g id="shape305-183" v:mID="305" v:groupContext="shape" transform="translate(-80.6569,80.6569) rotate(-90)">
					<title>Sheet.305</title>
					<path d="M0 80.66 L5.67 80.66" class="st3"/>
				</g>
				<g id="shape306-186" v:mID="306" v:groupContext="shape">
					<title>Sheet.306</title>
					<path d="M0 80.66 L5.67 80.66" class="st3"/>
				</g>
			</g>
			<g id="group309-189" transform="translate(366.843,-37.1023)" v:mID="309" v:groupContext="group">
				<title>Sheet.309</title>
				<g id="shape310-190" v:mID="310" v:groupContext="shape" transform="translate(-57.0331,23.6239) rotate(-45)">
					<title>Sheet.310</title>
					<path d="M0 80.66 L25.77 80.66" class="st3"/>
				</g>
				<g id="shape311-193" v:mID="311" v:groupContext="shape" transform="translate(-80.6569,80.6569) rotate(-90)">
					<title>Sheet.311</title>
					<path d="M0 80.66 L5.67 80.66" class="st3"/>
				</g>
				<g id="shape312-196" v:mID="312" v:groupContext="shape">
					<title>Sheet.312</title>
					<path d="M0 80.66 L5.67 80.66" class="st3"/>
				</g>
			</g>
			<g id="shape313-199" v:mID="313" v:groupContext="shape" transform="translate(387.74,-49.0972)">
				<title>Sheet.313</title>
				<desc>91 mph</desc>
				<v:textBlock v:margins="rect(2,2,2,2)" v:tabSpace="42.5197"/>
				<v:textRect cx="15.0634" cy="76.405" width="30.13" height="8.50394"/>
				<rect x="0" y="72.153" width="30.1268" height="8.50394" class="st1"/>
				<text x="2.95" y="78.8" class="st2" v:langID="1033"><v:paragraph v:horizAlign="1"/><v:tabList/>91 mph</text>			</g>
			<g id="group314-202" transform="translate(61.0419,111.076) rotate(135)" v:mID="314" v:groupContext="group">
				<title>Sheet.314</title>
				<g id="shape315-203" v:mID="315" v:groupContext="shape" transform="translate(-57.0331,23.6239) rotate(-45)">
					<title>Sheet.315</title>
					<path d="M0 80.66 L25.77 80.66" class="st3"/>
				</g>
				<g id="shape316-206" v:mID="316" v:groupContext="shape" transform="translate(-80.6569,80.6569) rotate(-90)">
					<title>Sheet.316</title>
					<path d="M0 80.66 L5.67 80.66" class="st3"/>
				</g>
				<g id="shape317-209" v:mID="317" v:groupContext="shape">
					<title>Sheet.317</title>
					<path d="M0 80.66 L5.67 80.66" class="st3"/>
				</g>
			</g>
			<g id="shape318-212" v:mID="318" v:groupContext="shape" transform="translate(5.0631,-7.93191)">
				<title>Sheet.318</title>
				<desc>Standstill</desc>
				<v:textBlock v:margins="rect(2,2,2,2)" v:tabSpace="42.5197"/>
				<v:textRect cx="19.3154" cy="76.405" width="38.64" height="8.50394"/>
				<rect x="0" y="72.153" width="38.6307" height="8.50394" class="st1"/>
				<text x="4.2" y="78.8" class="st2" v:langID="1033"><v:paragraph v:horizAlign="1"/><v:tabList/>Standstill</text>			</g>
			<g id="shape320-215" v:mID="320" v:groupContext="shape" transform="translate(367.127,-23.7794)">
				<title>Sheet.320</title>
				<desc>Deceleration</desc>
				<v:textBlock v:margins="rect(2,2,2,2)" v:tabSpace="42.5197"/>
				<v:textRect cx="30.8976" cy="78.9562" width="61.8" height="3.40157"/>
				<rect x="0" y="77.2554" width="61.7953" height="3.40157" class="st1"/>
				<text x="10.47" y="81.36" class="st2" v:langID="1033"><v:paragraph v:horizAlign="1"/><v:tabList/>Deceleration</text>			</g>
			<g id="group321-218" transform="translate(68.3553,-31.8582)" v:mID="321" v:groupContext="group">
				<title>Sheet.321</title>
				<g id="group322-219" transform="translate(0,-4.3937)" v:mID="322" v:groupContext="group">
					<title>Sheet.322</title>
					<g id="shape323-220" v:mID="323" v:groupContext="shape" transform="translate(6.39488E-14,-1.55906)">
						<title>Sheet.323</title>
						<path d="M0 80.66 L295.65 80.66" class="st10"/>
					</g>
					<g id="shape324-223" v:mID="324" v:groupContext="shape" transform="translate(214.997,80.6569) rotate(-90)">
						<title>Sheet.324</title>
						<path d="M0 80.66 L3.12 80.66" class="st10"/>
					</g>
					<g id="shape325-226" v:mID="325" v:groupContext="shape" transform="translate(-80.6569,80.6569) rotate(-90)">
						<title>Sheet.325</title>
						<path d="M0 80.66 L3.12 80.66" class="st10"/>
					</g>
				</g>
				<g id="shape326-229" v:mID="326" v:groupContext="shape" transform="translate(123.024,-8.68514)">
					<title>Sheet.326</title>
					<desc>Maximum speed</desc>
					<v:textBlock v:margins="rect(2,2,2,2)" v:tabSpace="42.5197"/>
					<v:textRect cx="30.8976" cy="74.9873" width="61.8" height="11.3392"/>
					<rect x="0" y="69.3177" width="61.7953" height="11.3392" class="st1"/>
					<text x="4.12" y="77.39" class="st2" v:langID="1033"><v:paragraph v:horizAlign="1"/><v:tabList/>Maximum speed  </text>				</g>
			</g>
			<g id="shape329-232" v:mID="329" v:groupContext="shape" transform="translate(438.764,-64.8818)">
				<title>Sheet.329</title>
				<desc>Flywheel Recharging</desc>
				<v:textBlock v:margins="rect(2,2,2,2)" v:tabSpace="42.5197"/>
				<v:textRect cx="20.7327" cy="76.405" width="41.47" height="8.50394"/>
				<rect x="0" y="72.153" width="41.4654" height="8.50394" class="st1"/>
				<text x="5.85" y="74.01" class="st2" v:langID="1033"><v:paragraph v:horizAlign="1"/><v:tabList/>Flywheel <tspan
							x="2.3" dy="1.2em" class="st12">Recharging</tspan></text>			</g>
		</g>
	</g>
</svg>
