<?xml version="1.0" encoding="UTF-8" standalone="no"?>
<!DOCTYPE svg PUBLIC "-//W3C//DTD SVG 1.1//EN" "http://www.w3.org/Graphics/SVG/1.1/DTD/svg11.dtd">
<!-- Generated by Microsoft Visio, SVG Export Transmotor.svg Page-1 -->
<svg xmlns="http://www.w3.org/2000/svg" xmlns:xlink="http://www.w3.org/1999/xlink" xmlns:ev="http://www.w3.org/2001/xml-events"
		xmlns:v="http://schemas.microsoft.com/visio/2003/SVGExtensions/" width="3.07014in" height="1.05612in"
		viewBox="0 0 221.05 76.0403" xml:space="preserve" color-interpolation-filters="sRGB" class="st14">
	<v:documentProperties v:langID="1033" v:viewMarkup="false"/>

	<style type="text/css">
	<![CDATA[
		.st1 {fill:#ffffff;stroke:#000000;stroke-linecap:round;stroke-linejoin:round;stroke-width:1}
		.st2 {visibility:visible}
		.st3 {fill:none;filter:url(#filter_2);stroke:#ffffff;stroke-opacity:0.22}
		.st4 {stroke:#000000;stroke-width:2}
		.st5 {fill:none;filter:url(#filter_2);stroke:none}
		.st6 {fill:#ffffff;filter:url(#filter_2);font-family:Times New Roman;font-size:0.666664em;opacity:0.219608}
		.st7 {fill:none;stroke:none;stroke-width:0.25}
		.st8 {fill:#000000;font-family:Times New Roman;font-size:0.666664em}
		.st9 {stroke:#41719c;stroke-linecap:round;stroke-linejoin:round;stroke-width:1}
		.st10 {stroke:#ff0000;stroke-linecap:round;stroke-linejoin:round;stroke-width:0.5}
		.st11 {baseline-shift:-32.4939%;font-size:0.649878em}
		.st12 {fill:#ff0000;font-family:Times New Roman;font-size:0.666664em}
		.st13 {stroke:#000000;stroke-linecap:round;stroke-linejoin:round;stroke-width:0.5}
		.st14 {fill:none;fill-rule:evenodd;font-size:12px;overflow:visible;stroke-linecap:square;stroke-miterlimit:3}
	]]>
	</style>

	<defs id="Filters">
		<filter id="filter_2">
			<feGaussianBlur stdDeviation="2"/>
		</filter>
	</defs>
	<g v:mID="0" v:index="1" v:groupContext="foregroundPage">
		<title>Page-1</title>
		<v:pageProperties v:drawingScale="0.0393701" v:pageScale="0.0393701" v:drawingUnits="24" v:shadowOffsetX="4.25197"
				v:shadowOffsetY="-4.25197"/>
		<g id="group947-1" transform="translate(3.78751,-3.43007)" v:mID="947" v:groupContext="group">
			<title>Sheet.947</title>
			<g id="shape395-2" v:mID="395" v:groupContext="shape" transform="translate(75.2111,-28.3465)">
				<title>Sheet.395</title>
				<rect x="0" y="33.5206" width="65.1969" height="42.5197" class="st1"/>
			</g>
			<g id="shape396-4" v:mID="396" v:groupContext="shape" transform="translate(140.975,102.474) scale(1,-1)">
				<title>Sheet.396</title>
				<g id="shadow396-5" v:groupContext="shadow" v:shadowOffsetX="0.345598" v:shadowOffsetY="-1.97279" v:shadowType="1"
						transform="matrix(1,0,0,1,0.345598,-1.97279)" class="st2">
					<path d="M0 76.04 L28.35 76.04" class="st3"/>
				</g>
				<path d="M0 76.04 L28.35 76.04" class="st4"/>
			</g>
			<g id="group397-12" transform="translate(139.624,-44.2797) scale(-1,1)" v:mID="397" v:groupContext="group">
				<title>Sheet.397</title>
				<g id="shape398-13" v:mID="398" v:groupContext="shape">
					<title>Sheet.398</title>
					<desc>Transmotor</desc>
					<v:textBlock v:margins="rect(2,2,2,2)" v:tabSpace="42.5197"/>
					<v:textRect cx="31.8281" cy="70.7136" width="63.66" height="10.6533"/>
					<g id="shadow398-14" v:groupContext="shadow" v:shadowOffsetX="0.345598" v:shadowOffsetY="-1.97279"
							v:shadowType="1" transform="matrix(1,0,0,1,-0.345598,1.97279)" class="st2">
						<rect x="0" y="65.387" width="63.6562" height="10.6533" class="st5"/>
						<text x="-50.49" y="73.11" transform="scale(-1,1)" class="st6" v:langID="1033"><v:paragraph
									v:horizAlign="1"/><v:tabList/>Transmotor</text>					</g>
					<rect x="0" y="65.387" width="63.6562" height="10.6533" class="st7"/>
					<text x="-50.49" y="73.11" transform="scale(-1,1)" class="st8" v:langID="1033"><v:paragraph v:horizAlign="1"/><v:tabList/>Transmotor</text>				</g>
			</g>
			<g id="shape400-21" v:mID="400" v:groupContext="shape" transform="translate(45.4473,102.474) scale(1,-1)">
				<title>Sheet.400</title>
				<g id="shadow400-22" v:groupContext="shadow" v:shadowOffsetX="0.345598" v:shadowOffsetY="-1.97279" v:shadowType="1"
						transform="matrix(1,0,0,1,0.345598,-1.97279)" class="st2">
					<path d="M0 76.04 L28.35 76.04" class="st3"/>
				</g>
				<path d="M0 76.04 L28.35 76.04" class="st4"/>
			</g>
			<g id="shape401-29" v:mID="401" v:groupContext="shape" transform="translate(31.7693,47.6938) rotate(-90) scale(-1,1)">
				<title>Sheet.401</title>
				<path d="M0 76.04 L28.35 76.04" class="st9"/>
			</g>
			<g id="group402-32" transform="translate(102.685,-13.3466) scale(-1,1)" v:mID="402" v:groupContext="group">
				<title>Sheet.402</title>
				<g id="shape403-33" v:mID="403" v:groupContext="shape">
					<title>Sheet.403</title>
					<desc>Port 3</desc>
					<v:textBlock v:margins="rect(2,2,2,2)" v:tabSpace="42.5197"/>
					<v:textRect cx="14.625" cy="70.7136" width="29.25" height="10.6533"/>
					<g id="shadow403-34" v:groupContext="shadow" v:shadowOffsetX="0.345598" v:shadowOffsetY="-1.97279"
							v:shadowType="1" transform="matrix(1,0,0,1,-0.345598,1.97279)" class="st2">
						<rect x="0" y="65.387" width="29.25" height="10.6533" class="st5"/>
						<text x="-24.29" y="73.11" transform="scale(-1,1)" class="st6" v:langID="1033"><v:paragraph
									v:horizAlign="1"/><v:tabList/>Port 3</text>					</g>
					<rect x="0" y="65.387" width="29.25" height="10.6533" class="st7"/>
					<text x="-24.29" y="73.11" transform="scale(-1,1)" class="st8" v:langID="1033"><v:paragraph v:horizAlign="1"/><v:tabList/>Port 3</text>				</g>
			</g>
			<g id="group404-41" transform="translate(112.248,-4.34659) scale(-1,1)" v:mID="404" v:groupContext="group">
				<title>Sheet.404</title>
				<g id="shape405-42" v:mID="405" v:groupContext="shape">
					<title>Sheet.405</title>
					<desc>(Electrical)</desc>
					<v:textBlock v:margins="rect(2,2,2,2)" v:tabSpace="42.5197"/>
					<v:textRect cx="24.1875" cy="70.7136" width="48.38" height="10.6533"/>
					<g id="shadow405-43" v:groupContext="shadow" v:shadowOffsetX="0.345598" v:shadowOffsetY="-1.97279"
							v:shadowType="1" transform="matrix(1,0,0,1,-0.345598,1.97279)" class="st2">
						<rect x="0" y="65.387" width="48.375" height="10.6533" class="st5"/>
						<text x="-42.17" y="73.11" transform="scale(-1,1)" class="st6" v:langID="1033"><v:paragraph
									v:horizAlign="1"/><v:tabList/>(Electrical)</text>					</g>
					<rect x="0" y="65.387" width="48.375" height="10.6533" class="st7"/>
					<text x="-42.17" y="73.11" transform="scale(-1,1)" class="st8" v:langID="1033"><v:paragraph v:horizAlign="1"/><v:tabList/>(Electrical)</text>				</g>
			</g>
			<g id="group406-50" transform="translate(203.222,-58.0096) scale(-1,1)" v:mID="406" v:groupContext="group">
				<title>Sheet.406</title>
				<g id="shape407-51" v:mID="407" v:groupContext="shape">
					<title>Sheet.407</title>
					<desc>Port 2</desc>
					<v:textBlock v:margins="rect(2,2,2,2)" v:tabSpace="42.5197"/>
					<v:textRect cx="14.625" cy="70.7136" width="29.25" height="10.6533"/>
					<g id="shadow407-52" v:groupContext="shadow" v:shadowOffsetX="0.345598" v:shadowOffsetY="-1.97279"
							v:shadowType="1" transform="matrix(1,0,0,1,-0.345598,1.97279)" class="st2">
						<rect x="0" y="65.387" width="29.25" height="10.6533" class="st5"/>
						<text x="-24.29" y="73.11" transform="scale(-1,1)" class="st6" v:langID="1033"><v:paragraph
									v:horizAlign="1"/><v:tabList/>Port 2</text>					</g>
					<rect x="0" y="65.387" width="29.25" height="10.6533" class="st7"/>
					<text x="-24.29" y="73.11" transform="scale(-1,1)" class="st8" v:langID="1033"><v:paragraph v:horizAlign="1"/><v:tabList/>Port 2</text>				</g>
			</g>
			<g id="group408-59" transform="translate(212.784,-49.6063) scale(-1,1)" v:mID="408" v:groupContext="group">
				<title>Sheet.408</title>
				<g id="shape409-60" v:mID="409" v:groupContext="shape">
					<title>Sheet.409</title>
					<desc>(Mechanical)</desc>
					<v:textBlock v:margins="rect(2,2,2,2)" v:tabSpace="42.5197"/>
					<v:textRect cx="24.1875" cy="70.7136" width="48.38" height="10.6533"/>
					<g id="shadow409-61" v:groupContext="shadow" v:shadowOffsetX="0.345598" v:shadowOffsetY="-1.97279"
							v:shadowType="1" transform="matrix(1,0,0,1,-0.345598,1.97279)" class="st2">
						<rect x="0" y="65.387" width="48.375" height="10.6533" class="st5"/>
						<text x="-45.51" y="73.11" transform="scale(-1,1)" class="st6" v:langID="1033"><v:paragraph
									v:horizAlign="1"/><v:tabList/>(Mechanical)</text>					</g>
					<rect x="0" y="65.387" width="48.375" height="10.6533" class="st7"/>
					<text x="-45.51" y="73.11" transform="scale(-1,1)" class="st8" v:langID="1033"><v:paragraph v:horizAlign="1"/><v:tabList/>(Mechanical)</text>				</g>
			</g>
			<g id="group410-68" transform="translate(38.8125,-58.0096) scale(-1,1)" v:mID="410" v:groupContext="group">
				<title>Sheet.410</title>
				<g id="shape411-69" v:mID="411" v:groupContext="shape">
					<title>Sheet.411</title>
					<desc>Port 1</desc>
					<v:textBlock v:margins="rect(2,2,2,2)" v:tabSpace="42.5197"/>
					<v:textRect cx="14.625" cy="70.7136" width="29.25" height="10.6533"/>
					<g id="shadow411-70" v:groupContext="shadow" v:shadowOffsetX="0.345598" v:shadowOffsetY="-1.97279"
							v:shadowType="1" transform="matrix(1,0,0,1,-0.345598,1.97279)" class="st2">
						<rect x="0" y="65.387" width="29.25" height="10.6533" class="st5"/>
						<text x="-24.29" y="73.11" transform="scale(-1,1)" class="st6" v:langID="1033"><v:paragraph
									v:horizAlign="1"/><v:tabList/>Port 1</text>					</g>
					<rect x="0" y="65.387" width="29.25" height="10.6533" class="st7"/>
					<text x="-24.29" y="73.11" transform="scale(-1,1)" class="st8" v:langID="1033"><v:paragraph v:horizAlign="1"/><v:tabList/>Port 1</text>				</g>
			</g>
			<g id="group412-77" transform="translate(48.375,-49.6063) scale(-1,1)" v:mID="412" v:groupContext="group">
				<title>Sheet.412</title>
				<g id="shape413-78" v:mID="413" v:groupContext="shape">
					<title>Sheet.413</title>
					<desc>(Mechanical)</desc>
					<v:textBlock v:margins="rect(2,2,2,2)" v:tabSpace="42.5197"/>
					<v:textRect cx="24.1875" cy="70.7136" width="48.38" height="10.6533"/>
					<g id="shadow413-79" v:groupContext="shadow" v:shadowOffsetX="0.345598" v:shadowOffsetY="-1.97279"
							v:shadowType="1" transform="matrix(1,0,0,1,-0.345598,1.97279)" class="st2">
						<rect x="0" y="65.387" width="48.375" height="10.6533" class="st5"/>
						<text x="-45.51" y="73.11" transform="scale(-1,1)" class="st6" v:langID="1033"><v:paragraph
									v:horizAlign="1"/><v:tabList/>(Mechanical)</text>					</g>
					<rect x="0" y="65.387" width="48.375" height="10.6533" class="st7"/>
					<text x="-45.51" y="73.11" transform="scale(-1,1)" class="st8" v:langID="1033"><v:paragraph v:horizAlign="1"/><v:tabList/>(Mechanical)</text>				</g>
			</g>
			<g id="group465-86" transform="translate(65.0388,-38.7217)" v:mID="465" v:groupContext="group">
				<title>Sheet.465</title>
				<g id="shape462-87" v:mID="462" v:groupContext="shape" transform="translate(76.0403,55.2344) rotate(90)">
					<title>Sheet.462</title>
					<path d="M-0 70.63 A9.52441 5.41417 -0 1 0 19.05 70.63" class="st10"/>
				</g>
				<g id="shape464-90" v:mID="464" v:groupContext="shape" transform="translate(22.5151,2.49904) rotate(15)">
					<title>Sheet.464</title>
					<path d="M0.36 76.04 L2.59 73.8 L0 71.21" class="st10"/>
				</g>
			</g>
			<g id="group466-93" transform="translate(144.66,92.0713) scale(1,-1)" v:mID="466" v:groupContext="group">
				<title>Sheet.466</title>
				<g id="shape467-94" v:mID="467" v:groupContext="shape" transform="translate(76.0403,55.2344) rotate(90)">
					<title>Sheet.467</title>
					<path d="M-0 70.63 A9.52441 5.41417 -0 1 0 19.05 70.63" class="st10"/>
				</g>
				<g id="shape468-97" v:mID="468" v:groupContext="shape" transform="translate(22.5151,2.49904) rotate(15)">
					<title>Sheet.468</title>
					<path d="M0.36 76.04 L2.59 73.8 L0 71.21" class="st10"/>
				</g>
			</g>
			<g id="group469-100" transform="translate(84.1668,-59.1496) scale(-1,1)" v:mID="469" v:groupContext="group">
				<title>Sheet.469</title>
				<g id="shape470-101" v:mID="470" v:groupContext="shape">
					<title>Sheet.470</title>
					<desc>Tm1</desc>
					<v:textBlock v:margins="rect(2,2,2,2)" v:tabSpace="42.5197"/>
					<v:textRect cx="14.625" cy="70.7136" width="29.25" height="10.6533"/>
					<g id="shadow470-102" v:groupContext="shadow" v:shadowOffsetX="0.345598" v:shadowOffsetY="-1.97279"
							v:shadowType="1" transform="matrix(1,0,0,1,-0.345598,1.97279)" class="st2">
						<rect x="0" y="65.387" width="29.25" height="10.6533" class="st5"/>
						<text x="-20.39" y="73.11" transform="scale(-1,1)" class="st6" v:langID="1033"><v:paragraph
									v:horizAlign="1"/><v:tabList/>T<tspan dy="-0.279em" class="st11" v:baseFontSize="8">m1</tspan></text>					</g>
					<rect x="0" y="65.387" width="29.25" height="10.6533" class="st7"/>
					<text x="-20.39" y="73.11" transform="scale(-1,1)" class="st12" v:langID="1033"><v:paragraph v:horizAlign="1"/><v:tabList/>T<tspan
								dy="-0.279em" class="st11" v:baseFontSize="8">m1</tspan></text>				</g>
			</g>
			<g id="group471-111" transform="translate(162.12,-59.5276) scale(-1,1)" v:mID="471" v:groupContext="group">
				<title>Sheet.471</title>
				<g id="shape472-112" v:mID="472" v:groupContext="shape">
					<title>Sheet.472</title>
					<desc>Tm2</desc>
					<v:textBlock v:margins="rect(2,2,2,2)" v:tabSpace="42.5197"/>
					<v:textRect cx="14.625" cy="70.7136" width="29.25" height="10.6533"/>
					<g id="shadow472-113" v:groupContext="shadow" v:shadowOffsetX="0.345598" v:shadowOffsetY="-1.97279"
							v:shadowType="1" transform="matrix(1,0,0,1,-0.345598,1.97279)" class="st2">
						<rect x="0" y="65.387" width="29.25" height="10.6533" class="st5"/>
						<text x="-20.39" y="73.11" transform="scale(-1,1)" class="st6" v:langID="1033"><v:paragraph
									v:horizAlign="1"/><v:tabList/>T<tspan dy="-0.279em" class="st11" v:baseFontSize="8">m2</tspan></text>					</g>
					<rect x="0" y="65.387" width="29.25" height="10.6533" class="st7"/>
					<text x="-20.39" y="73.11" transform="scale(-1,1)" class="st12" v:langID="1033"><v:paragraph v:horizAlign="1"/><v:tabList/>T<tspan
								dy="-0.279em" class="st11" v:baseFontSize="8">m2</tspan></text>				</g>
			</g>
			<g id="group473-122" transform="translate(50.6649,-38.7217)" v:mID="473" v:groupContext="group">
				<title>Sheet.473</title>
				<g id="shape474-123" v:mID="474" v:groupContext="shape" transform="translate(76.0403,55.2344) rotate(90)">
					<title>Sheet.474</title>
					<path d="M-0 70.63 A9.52441 5.41417 -0 1 0 19.05 70.63" class="st13"/>
				</g>
				<g id="shape475-126" v:mID="475" v:groupContext="shape" transform="translate(22.5151,2.49904) rotate(15)">
					<title>Sheet.475</title>
					<path d="M0.36 76.04 L2.59 73.8 L0 71.21" class="st13"/>
				</g>
			</g>
			<g id="group938-129" transform="translate(69.5418,-59.1496) scale(-1,1)" v:mID="938" v:groupContext="group">
				<title>Sheet.938</title>
				<g id="shape939-130" v:mID="939" v:groupContext="shape">
					<title>Sheet.939</title>
					<desc>ωm2</desc>
					<v:textBlock v:margins="rect(2,2,2,2)" v:tabSpace="42.5197"/>
					<v:textRect cx="14.625" cy="70.7136" width="29.25" height="10.6533"/>
					<g id="shadow939-131" v:groupContext="shadow" v:shadowOffsetX="0.345598" v:shadowOffsetY="-1.97279"
							v:shadowType="1" transform="matrix(1,0,0,1,-0.345598,1.97279)" class="st2">
						<rect x="0" y="65.387" width="29.25" height="10.6533" class="st5"/>
						<text x="-20.58" y="73.11" transform="scale(-1,1)" class="st6" v:langID="1032"><v:paragraph
									v:horizAlign="1"/><v:tabList/>ω<tspan dy="-0.279em" class="st11" v:langID="1033"
									v:baseFontSize="8">m2</tspan></text>					</g>
					<rect x="0" y="65.387" width="29.25" height="10.6533" class="st7"/>
					<text x="-20.58" y="73.11" transform="scale(-1,1)" class="st8" v:langID="1032"><v:paragraph v:horizAlign="1"/><v:tabList/>ω<tspan
								dy="-0.279em" class="st11" v:langID="1033" v:baseFontSize="8">m2</tspan></text>				</g>
			</g>
			<g id="group944-140" transform="translate(178.162,-58.0096) scale(-1,1)" v:mID="944" v:groupContext="group">
				<title>Sheet.944</title>
				<g id="shape945-141" v:mID="945" v:groupContext="shape">
					<title>Sheet.945</title>
					<desc>ωm2</desc>
					<v:textBlock v:margins="rect(2,2,2,2)" v:tabSpace="42.5197"/>
					<v:textRect cx="14.625" cy="70.7136" width="29.25" height="10.6533"/>
					<g id="shadow945-142" v:groupContext="shadow" v:shadowOffsetX="0.345598" v:shadowOffsetY="-1.97279"
							v:shadowType="1" transform="matrix(1,0,0,1,-0.345598,1.97279)" class="st2">
						<rect x="0" y="65.387" width="29.25" height="10.6533" class="st5"/>
						<text x="-20.58" y="73.11" transform="scale(-1,1)" class="st6" v:langID="1032"><v:paragraph
									v:horizAlign="1"/><v:tabList/>ω<tspan dy="-0.279em" class="st11" v:langID="1033"
									v:baseFontSize="8">m2</tspan></text>					</g>
					<rect x="0" y="65.387" width="29.25" height="10.6533" class="st7"/>
					<text x="-20.58" y="73.11" transform="scale(-1,1)" class="st8" v:langID="1032"><v:paragraph v:horizAlign="1"/><v:tabList/>ω<tspan
								dy="-0.279em" class="st11" v:langID="1033" v:baseFontSize="8">m2</tspan></text>				</g>
			</g>
			<g id="group946-151" transform="translate(163.085,-36.8504) scale(-1,1)" v:mID="946" v:groupContext="group">
				<title>Sheet.946</title>
				<g id="shape477-152" v:mID="477" v:groupContext="shape" transform="translate(-70.371,73.6873) rotate(-90)">
					<title>Sheet.477</title>
					<path d="M-0 70.63 A9.52441 5.41417 -0 1 0 19.05 70.63" class="st13"/>
				</g>
				<g id="shape935-155" v:mID="935" v:groupContext="shape" transform="translate(2.59471,147.246) rotate(180)">
					<title>Sheet.935</title>
					<path d="M0.36 76.04 L2.59 73.8 L0 71.21" class="st13"/>
				</g>
			</g>
		</g>
	</g>
</svg>
