<?xml version="1.0" encoding="UTF-8" standalone="no"?>
<!DOCTYPE svg PUBLIC "-//W3C//DTD SVG 1.1//EN" "http://www.w3.org/Graphics/SVG/1.1/DTD/svg11.dtd">
<!-- Generated by Microsoft Visio, SVG Export Equivalent-Circuit.svg Page-1 -->
<svg xmlns="http://www.w3.org/2000/svg" xmlns:xlink="http://www.w3.org/1999/xlink" xmlns:ev="http://www.w3.org/2001/xml-events"
		xmlns:v="http://schemas.microsoft.com/visio/2003/SVGExtensions/" width="7.28699in" height="3.19001in"
		viewBox="0 0 524.663 229.681" xml:space="preserve" color-interpolation-filters="sRGB" class="st14">
	<v:documentProperties v:langID="1033" v:viewMarkup="false"/>

	<style type="text/css">
	<![CDATA[
		.st1 {fill:#dde2cd;stroke:#000000;stroke-linecap:round;stroke-linejoin:round;stroke-width:0.24}
		.st2 {fill:none;stroke:#ff0000;stroke-linecap:round;stroke-linejoin:round;stroke-width:2}
		.st3 {stroke:#000000;stroke-linecap:round;stroke-linejoin:round;stroke-width:0.75}
		.st4 {fill:#ffffff;stroke:#000000;stroke-linecap:round;stroke-linejoin:round;stroke-width:0.75;visibility:hidden}
		.st5 {fill:none;stroke:none;stroke-linecap:round;stroke-linejoin:round;stroke-width:0.75}
		.st6 {fill:#000000;font-family:Times New Roman;font-size:0.666664em}
		.st7 {baseline-shift:-32.4939%;font-size:0.649878em}
		.st8 {fill:none;stroke:#000000;stroke-linecap:round;stroke-linejoin:round;stroke-width:0.75}
		.st9 {fill:#000000;font-family:Arial;font-size:0.666664em}
		.st10 {fill:#ffffff;stroke:none;stroke-linecap:round;stroke-linejoin:round;stroke-width:0.75}
		.st11 {stroke:#50632a;stroke-linecap:round;stroke-linejoin:round;stroke-width:0.5}
		.st12 {fill:#000000;font-family:Times New Roman;font-size:0.416656em}
		.st13 {baseline-shift:-32.4929%;font-size:0.649857em}
		.st14 {fill:none;fill-rule:evenodd;font-size:12px;overflow:visible;stroke-linecap:square;stroke-miterlimit:3}
	]]>
	</style>

	<g v:mID="0" v:index="1" v:groupContext="foregroundPage">
		<title>Page-1</title>
		<v:pageProperties v:drawingScale="0.0393701" v:pageScale="0.0393701" v:drawingUnits="24" v:shadowOffsetX="8.50394"
				v:shadowOffsetY="-8.50394"/>
		<v:layer v:name="Connector" v:index="0"/>
		<g id="group1637-1" transform="translate(0.375,-0.12)" v:mID="1637" v:groupContext="group">
			<title>Sheet.1637</title>
			<g id="shape1497-2" v:mID="1497" v:groupContext="shape" transform="translate(248.311,0.0326627) rotate(-0.298583)">
				<title>1-D double.1497</title>
				<v:userDefs>
					<v:ud v:nameU="visVersion" v:val="VT0(15):26"/>
				</v:userDefs>
				<path d="M5.67 212.67 L5.67 207 L0 218.34 L5.67 229.68 L5.67 224.01 L245.91 224.01 L245.91 229.68 L251.58 218.34
							 L245.91 207 L245.91 212.67 L5.67 212.67 Z" class="st1"/>
			</g>
			<g id="shape1492-4" v:mID="1492" v:groupContext="shape" transform="translate(223.37,-137.821)">
				<title>Sheet.1492</title>
				<rect x="0" y="168.736" width="23.2441" height="60.9449" class="st2"/>
			</g>
			<g id="group1346-6" transform="translate(0,-126.854)" v:mID="1346" v:groupContext="group">
				<title>Sheet.1346</title>
				<g id="group1347-7" transform="translate(49.5406,-62.6836)" v:mID="1347" v:groupContext="group">
					<title>Resistor.1123</title>
					<g id="shape1348-8" v:mID="1348" v:groupContext="shape" transform="translate(26.5748,-3.18898)">
						<title>Sheet.1348</title>
						<path d="M0 229.68 L7.44 229.68" class="st3"/>
					</g>
					<g id="shape1349-11" v:mID="1349" v:groupContext="shape" transform="translate(0,-3.18898)">
						<title>Sheet.1349</title>
						<path d="M0 229.68 L7.44 229.68" class="st3"/>
					</g>
					<g id="shape1350-14" v:mID="1350" v:groupContext="shape" transform="translate(7.44094,0)">
						<title>Sheet.1350</title>
						<path d="M0 226.49 L1.59 223.3 L4.78 229.68 L7.97 223.3 L11.16 229.68 L14.35 223.3 L17.54 229.68 L19.13 226.49"
								class="st3"/>
					</g>
					<g id="shape1351-17" v:mID="1351" v:groupContext="shape">
						<title>Sheet.1351</title>
						<rect x="0" y="223.303" width="34.0157" height="6.37795" class="st4"/>
					</g>
				</g>
				<g id="group1352-19" transform="translate(171.43,-62.7899)" v:mID="1352" v:groupContext="group">
					<title>Resistor.1128</title>
					<g id="shape1353-20" v:mID="1353" v:groupContext="shape" transform="translate(25.1423,-3.08268)">
						<title>Sheet.1353</title>
						<path d="M0 229.68 L8.87 229.68" class="st3"/>
					</g>
					<g id="shape1354-23" v:mID="1354" v:groupContext="shape" transform="translate(0,-3.08268)">
						<title>Sheet.1354</title>
						<path d="M0 229.68 L6.65 229.68" class="st3"/>
					</g>
					<g id="shape1355-26" v:mID="1355" v:groupContext="shape" transform="translate(6.64623,0)">
						<title>Sheet.1355</title>
						<path d="M0 226.6 L1.54 223.52 L4.62 229.68 L7.71 223.52 L10.79 229.68 L13.87 223.52 L16.95 229.68 L18.5
									 226.6" class="st3"/>
					</g>
					<g id="shape1356-29" v:mID="1356" v:groupContext="shape" transform="translate(-1.11361,0)">
						<title>Sheet.1356</title>
						<rect x="0" y="223.515" width="34.0157" height="6.16535" class="st4"/>
					</g>
				</g>
				<g id="group1357-31" transform="translate(-105.057,209.162) rotate(-90)" v:mID="1357" v:groupContext="group">
					<title>Inductor.1133</title>
					<g id="shape1358-32" v:mID="1358" v:groupContext="shape" transform="translate(32.1666,-3.08268)">
						<title>Sheet.1358</title>
						<path d="M0 229.68 L7.52 229.68" class="st3"/>
					</g>
					<g id="shape1359-35" v:mID="1359" v:groupContext="shape" transform="translate(0,-3.08268)">
						<title>Sheet.1359</title>
						<path d="M0 229.68 L7.52 229.68" class="st3"/>
					</g>
					<g id="shape1360-38" v:mID="1360" v:groupContext="shape" transform="translate(7.51844,-3.08268)">
						<title>Sheet.1360</title>
						<path d="M0 229.68 A3.08102 3.08268 0 0 1 3.08 226.6 A3.08102 3.08268 0 0 1 6.16 229.68 A3.08102 3.08268
									 0 0 1 9.24 226.6 A3.08102 3.08268 0 0 1 12.32 229.68 A3.08102 3.08268 0 0 1 15.41 226.6 A3.08102
									 3.08268 0 0 1 18.49 229.68 A3.08102 3.08268 0 0 1 21.57 226.6 A3.08102 3.08268 0 0 1 24.65 229.68"
								class="st3"/>
					</g>
					<g id="shape1361-41" v:mID="1361" v:groupContext="shape">
						<title>Sheet.1361</title>
						<rect x="0" y="223.515" width="39.685" height="6.16535" class="st4"/>
					</g>
				</g>
				<g id="group1362-43" transform="translate(133.446,-62.6836)" v:mID="1362" v:groupContext="group">
					<title>Inductor.1138</title>
					<g id="shape1363-44" v:mID="1363" v:groupContext="shape" transform="translate(32.5916,-3.18898)">
						<title>Sheet.1363</title>
						<path d="M0 229.68 L7.09 229.68" class="st3"/>
					</g>
					<g id="shape1364-47" v:mID="1364" v:groupContext="shape" transform="translate(0,-3.18898)">
						<title>Sheet.1364</title>
						<path d="M0 229.68 L7.09 229.68" class="st3"/>
					</g>
					<g id="shape1365-50" v:mID="1365" v:groupContext="shape" transform="translate(7.09347,-3.18898)">
						<title>Sheet.1365</title>
						<path d="M0 229.68 A3.18726 3.18898 0 0 1 3.19 226.49 A3.18726 3.18898 0 0 1 6.37 229.68 A3.18726 3.18898
									 0 0 1 9.56 226.49 A3.18726 3.18898 0 0 1 12.75 229.68 A3.18726 3.18898 0 0 1 15.94 226.49 A3.18726
									 3.18898 0 0 1 19.12 229.68 A3.18726 3.18898 0 0 1 22.31 226.49 A3.18726 3.18898 0 0 1 25.5 229.68"
								class="st3"/>
					</g>
					<g id="shape1366-53" v:mID="1366" v:groupContext="shape">
						<title>Sheet.1366</title>
						<rect x="0" y="223.303" width="39.685" height="6.37795" class="st4"/>
					</g>
				</g>
				<g id="group1367-55" transform="translate(80.1547,-62.7899)" v:mID="1367" v:groupContext="group">
					<title>Inductor.1143</title>
					<g id="shape1368-56" v:mID="1368" v:groupContext="shape" transform="translate(32.5716,-3.08268)">
						<title>Sheet.1368</title>
						<path d="M0 229.68 L7.11 229.68" class="st3"/>
					</g>
					<g id="shape1369-59" v:mID="1369" v:groupContext="shape" transform="translate(0,-3.08268)">
						<title>Sheet.1369</title>
						<path d="M0 229.68 L7.92 229.68" class="st3"/>
					</g>
					<g id="shape1370-62" v:mID="1370" v:groupContext="shape" transform="translate(7.92339,-3.08268)">
						<title>Sheet.1370</title>
						<path d="M0 229.68 A3.08102 3.08268 0 0 1 3.08 226.6 A3.08102 3.08268 0 0 1 6.16 229.68 A3.08102 3.08268
									 0 0 1 9.24 226.6 A3.08102 3.08268 0 0 1 12.32 229.68 A3.08102 3.08268 0 0 1 15.41 226.6 A3.08102
									 3.08268 0 0 1 18.49 229.68 A3.08102 3.08268 0 0 1 21.57 226.6 A3.08102 3.08268 0 0 1 24.65 229.68"
								class="st3"/>
					</g>
					<g id="shape1371-65" v:mID="1371" v:groupContext="shape" transform="translate(0.404949,0)">
						<title>Sheet.1371</title>
						<rect x="0" y="223.515" width="39.685" height="6.16535" class="st4"/>
					</g>
				</g>
				<g id="shape1372-67" v:mID="1372" v:groupContext="shape" v:layerMember="0" transform="translate(127.777,-55.9514)">
					<title>Dynamic connector.1148</title>
					<path d="M-6.24 225.43 L-7.94 219.76" class="st3"/>
				</g>
				<g id="shape1373-70" v:mID="1373" v:groupContext="shape" v:layerMember="0" transform="translate(179.367,-72.9592)">
					<title>Dynamic connector.1149</title>
					<path d="M-6.24 236.77 L-7.94 236.77" class="st3"/>
				</g>
				<g id="shape1374-73" v:mID="1374" v:groupContext="shape" v:layerMember="0" transform="translate(121.541,-29.8726)">
					<title>Dynamic connector.1150</title>
					<path d="M0 231.1 L0 242.44 L-98.57 242.44" class="st3"/>
				</g>
				<g id="shape1375-76" v:mID="1375" v:groupContext="shape" transform="translate(1.39888E-14,-33.8432)">
					<title>Sheet.1375</title>
					<desc>Vqsp</desc>
					<v:textBlock v:margins="rect(4,4,4,4)" v:tabSpace="42.5197"/>
					<v:textRect cx="13.2165" cy="224.011" width="26.44" height="11.3386"/>
					<rect x="0" y="218.342" width="26.4331" height="11.3386" class="st5"/>
					<text x="6.72" y="226.41" class="st6" v:langID="1033"><v:paragraph v:horizAlign="1"/><v:tabList/>V<tspan
								dy="-0.279em" class="st7" v:baseFontSize="8">qsp</tspan></text>				</g>
				<g id="shape1376-80" v:mID="1376" v:groupContext="shape" transform="translate(22.7532,-71.5419)">
					<title>Sheet.1376</title>
					<desc>Edsp</desc>
					<v:textBlock v:margins="rect(4,4,4,4)" v:tabSpace="42.5197"/>
					<v:textRect cx="13.2165" cy="224.011" width="26.44" height="11.3386"/>
					<rect x="0" y="218.342" width="26.4331" height="11.3386" class="st5"/>
					<text x="7.16" y="226.41" class="st6" v:langID="1033"><v:paragraph v:horizAlign="1"/><v:tabList/>E<tspan
								dy="-0.279em" class="st7" v:baseFontSize="8">dsp</tspan></text>				</g>
				<g id="shape1377-84" v:mID="1377" v:groupContext="shape" transform="translate(52.765,-68.7073)">
					<title>Sheet.1377</title>
					<desc>Rsp</desc>
					<v:textBlock v:margins="rect(4,4,4,4)" v:tabSpace="42.5197"/>
					<v:textRect cx="13.2165" cy="224.011" width="26.44" height="11.3386"/>
					<rect x="0" y="218.342" width="26.4331" height="11.3386" class="st5"/>
					<text x="8.24" y="226.41" class="st6" v:langID="1033"><v:paragraph v:horizAlign="1"/><v:tabList/>R<tspan
								dy="-0.279em" class="st7" v:baseFontSize="8">sp</tspan></text>				</g>
				<g id="shape1378-88" v:mID="1378" v:groupContext="shape" transform="translate(86.887,-68.7073)">
					<title>Sheet.1378</title>
					<desc>Llsp</desc>
					<v:textBlock v:margins="rect(4,4,4,4)" v:tabSpace="42.5197"/>
					<v:textRect cx="13.2165" cy="224.011" width="26.44" height="11.3386"/>
					<rect x="0" y="218.342" width="26.4331" height="11.3386" class="st5"/>
					<text x="7.74" y="226.41" class="st6" v:langID="1033"><v:paragraph v:horizAlign="1"/><v:tabList/>L<tspan
								dy="-0.279em" class="st7" v:baseFontSize="8">lsp</tspan></text>				</g>
				<g id="shape1379-92" v:mID="1379" v:groupContext="shape" transform="translate(139.328,-68.7073)">
					<title>Sheet.1379</title>
					<desc>Llrp</desc>
					<v:textBlock v:margins="rect(4,4,4,4)" v:tabSpace="42.5197"/>
					<v:textRect cx="13.2165" cy="224.011" width="26.44" height="11.3386"/>
					<rect x="0" y="218.342" width="26.4331" height="11.3386" class="st5"/>
					<text x="7.89" y="226.41" class="st6" v:langID="1033"><v:paragraph v:horizAlign="1"/><v:tabList/>L<tspan
								dy="-0.279em" class="st7" v:baseFontSize="8">lrp</tspan></text>				</g>
				<g id="shape1380-96" v:mID="1380" v:groupContext="shape" transform="translate(97.5524,-36.1088)">
					<title>Sheet.1380</title>
					<desc>Lmp</desc>
					<v:textBlock v:margins="rect(4,4,4,4)" v:tabSpace="42.5197"/>
					<v:textRect cx="13.2165" cy="224.011" width="26.44" height="11.3386"/>
					<rect x="0" y="218.342" width="26.4331" height="11.3386" class="st5"/>
					<text x="7.45" y="226.41" class="st6" v:langID="1033"><v:paragraph v:horizAlign="1"/><v:tabList/>L<tspan
								dy="-0.279em" class="st7" v:baseFontSize="8">mp</tspan></text>				</g>
				<g id="shape1381-100" v:mID="1381" v:groupContext="shape" transform="translate(174.478,-68.7073)">
					<title>Sheet.1381</title>
					<desc>Rrp</desc>
					<v:textBlock v:margins="rect(4,4,4,4)" v:tabSpace="42.5197"/>
					<v:textRect cx="13.2165" cy="224.011" width="26.44" height="11.3386"/>
					<rect x="0" y="218.342" width="26.4331" height="11.3386" class="st5"/>
					<text x="8.38" y="226.41" class="st6" v:langID="1033"><v:paragraph v:horizAlign="1"/><v:tabList/>R<tspan
								dy="-0.279em" class="st7" v:baseFontSize="8">rp</tspan></text>				</g>
				<g id="shape1382-104" v:mID="1382" v:groupContext="shape" transform="translate(201.194,-71.5419)">
					<title>Sheet.1382</title>
					<desc>Edrp</desc>
					<v:textBlock v:margins="rect(4,4,4,4)" v:tabSpace="42.5197"/>
					<v:textRect cx="13.2165" cy="224.011" width="26.44" height="11.3386"/>
					<rect x="0" y="218.342" width="26.4331" height="11.3386" class="st5"/>
					<text x="7.31" y="226.41" class="st6" v:langID="1033"><v:paragraph v:horizAlign="1"/><v:tabList/>E<tspan
								dy="-0.279em" class="st7" v:baseFontSize="8">drp</tspan></text>				</g>
				<g id="group1383-108" transform="translate(-8.64399,169.973) rotate(-90)" v:mID="1383" v:groupContext="group">
					<title>Sheet.1383</title>
					<g id="shape1384-109" v:mID="1384" v:groupContext="shape"
							transform="translate(12.3307,-1.42109E-13) scale(-1,1)">
						<title>Sheet.1384</title>
						<path d="M0 223.3 A6.16535 6.37795 0 0 1 12.33 223.3 A6.16535 6.37795 0 1 1 0 223.3 Z" class="st8"/>
					</g>
					<g id="shape1385-111" v:mID="1385" v:groupContext="shape" transform="translate(8.34449,-7.57382) scale(-1,1)">
						<title>Sheet.1385</title>
						<desc>+</desc>
						<v:textBlock v:margins="rect(0,0,0,0)" v:tabSpace="42.5197"/>
						<v:textRect cx="1.54134" cy="228.086" width="3.09" height="3.18898" transform="rotate(180)"/>
						<rect x="0" y="226.492" width="3.08268" height="3.18898" class="st5"/>
						<text x="-0" y="-225.69" transform="scale(1,-1)" class="st9" v:langID="1033"><v:paragraph v:horizAlign="1"/><v:tabList/>+</text>					</g>
					<g id="shape1386-114" v:mID="1386" v:groupContext="shape" transform="translate(7.77756,-1.19587) scale(-1,1)">
						<title>Sheet.1386</title>
						<desc>-</desc>
						<v:textBlock v:margins="rect(0,0,0,0)" v:tabSpace="42.5197"/>
						<v:textRect cx="1.54134" cy="228.086" width="3.09" height="3.18898" transform="rotate(180)"/>
						<rect x="0" y="226.492" width="3.08268" height="3.18898" class="st10"/>
						<text x="0.21" y="-225.69" transform="scale(1,-1)" class="st9" v:langID="1033"><v:paragraph
									v:horizAlign="1"/><v:tabList/>-</text>					</g>
				</g>
				<g id="group1387-117" transform="translate(259.52,157.997) rotate(90)" v:mID="1387" v:groupContext="group">
					<title>Sheet.1387</title>
					<g id="shape1388-118" v:mID="1388" v:groupContext="shape"
							transform="translate(12.3307,-1.42109E-13) scale(-1,1)">
						<title>Sheet.1388</title>
						<path d="M0 223.3 A6.16535 6.37795 0 0 1 12.33 223.3 A6.16535 6.37795 0 1 1 0 223.3 Z" class="st8"/>
					</g>
					<g id="shape1389-120" v:mID="1389" v:groupContext="shape" transform="translate(8.34449,-7.95752) scale(-1,1)">
						<title>Sheet.1389</title>
						<desc>+</desc>
						<v:textBlock v:margins="rect(0,0,0,0)" v:tabSpace="42.5197"/>
						<v:textRect cx="1.54134" cy="228.086" width="3.09" height="3.18898" transform="rotate(180)"/>
						<rect x="0" y="226.492" width="3.08268" height="3.18898" class="st5"/>
						<text x="-0" y="-225.69" transform="scale(1,-1)" class="st9" v:langID="1033"><v:paragraph v:horizAlign="1"/><v:tabList/>+</text>					</g>
					<g id="shape1390-123" v:mID="1390" v:groupContext="shape" transform="translate(7.77756,-1.19587) scale(-1,1)">
						<title>Sheet.1390</title>
						<desc>-</desc>
						<v:textBlock v:margins="rect(0,0,0,0)" v:tabSpace="42.5197"/>
						<v:textRect cx="1.54134" cy="228.086" width="3.09" height="3.18898" transform="rotate(180)"/>
						<rect x="0" y="226.492" width="3.08268" height="3.18898" class="st10"/>
						<text x="0.21" y="-225.69" transform="scale(1,-1)" class="st9" v:langID="1033"><v:paragraph
									v:horizAlign="1"/><v:tabList/>-</text>					</g>
				</g>
				<g id="shape1391-126" v:mID="1391" v:groupContext="shape" transform="translate(83.5563,393.489) rotate(180)">
					<title>Sheet.1391</title>
					<path d="M0 229.68 L3.4 229.68" class="st3"/>
				</g>
				<g id="shape1392-129" v:mID="1392" v:groupContext="shape" transform="translate(49.5406,393.489) rotate(180)">
					<title>Sheet.1392</title>
					<path d="M0 229.68 L6.96 229.68" class="st3"/>
				</g>
				<g id="shape1393-132" v:mID="1393" v:groupContext="shape" transform="translate(205.446,-65.8726)">
					<title>Sheet.1393</title>
					<path d="M0 229.68 L2.55 229.68" class="st3"/>
				</g>
				<g id="shape1394-135" v:mID="1394" v:groupContext="shape" transform="translate(133.446,393.489) rotate(180)">
					<title>Sheet.1394</title>
					<path d="M0 229.68 L11.91 229.68" class="st3"/>
				</g>
				<g id="shape1395-138" v:mID="1395" v:groupContext="shape" transform="translate(230.315,442.242) rotate(180)">
					<title>Sheet.1395</title>
					<path d="M0 229.68 L108.78 229.68" class="st3"/>
				</g>
				<g id="group1396-141" transform="translate(-51.3644,170.539) rotate(-90)" v:mID="1396" v:groupContext="group">
					<title>Sheet.1396</title>
					<g id="shape1397-142" v:mID="1397" v:groupContext="shape" transform="translate(231.317,216.901) rotate(90)">
						<title>Sheet.1397</title>
						<path d="M0 229.68 L13.14 229.68" class="st11"/>
					</g>
					<g id="shape1398-145" v:mID="1398" v:groupContext="shape" transform="translate(164.045,379.31) rotate(135)">
						<title>Sheet.1398</title>
						<path d="M0 229.68 L2.31 229.68" class="st11"/>
					</g>
					<g id="shape1399-148" v:mID="1399" v:groupContext="shape" transform="translate(-159.136,380.946) rotate(-135)">
						<title>Sheet.1399</title>
						<path d="M0 229.68 L2.31 229.68" class="st11"/>
					</g>
				</g>
				<g id="group1400-151" transform="translate(290.335,168.903) rotate(90)" v:mID="1400" v:groupContext="group">
					<title>Sheet.1400</title>
					<g id="shape1401-152" v:mID="1401" v:groupContext="shape" transform="translate(231.317,216.901) rotate(90)">
						<title>Sheet.1401</title>
						<path d="M0 229.68 L13.14 229.68" class="st11"/>
					</g>
					<g id="shape1402-155" v:mID="1402" v:groupContext="shape" transform="translate(164.045,379.31) rotate(135)">
						<title>Sheet.1402</title>
						<path d="M0 229.68 L2.31 229.68" class="st11"/>
					</g>
					<g id="shape1403-158" v:mID="1403" v:groupContext="shape" transform="translate(-159.136,380.946) rotate(-135)">
						<title>Sheet.1403</title>
						<path d="M0 229.68 L2.31 229.68" class="st11"/>
					</g>
				</g>
				<g id="shape1404-161" v:mID="1404" v:groupContext="shape" transform="translate(57.82,-55.6754)">
					<title>Sheet.1404</title>
					<desc>Iqsp</desc>
					<v:textBlock v:margins="rect(4,4,4,4)" v:tabSpace="42.5197"/>
					<v:textRect cx="9.92126" cy="229.543" width="19.85" height="0.275988"/>
					<rect x="0" y="229.405" width="19.8425" height="0.275988" class="st5"/>
					<text x="6.83" y="231.04" class="st12" v:langID="1033"><v:paragraph v:horizAlign="1"/><v:tabList/>I<tspan
								dy="-0.279em" class="st13" v:baseFontSize="5">qsp</tspan></text>				</g>
				<g id="shape1405-165" v:mID="1405" v:groupContext="shape" transform="translate(162.702,-57.3761)">
					<title>Sheet.1405</title>
					<desc>Iqr</desc>
					<v:textBlock v:margins="rect(4,4,4,4)" v:tabSpace="42.5197"/>
					<v:textRect cx="9.92126" cy="229.681" width="19.85" height="0"/>
				</g>
</svg>
